<?xml version="1.0" encoding="UTF-8"?>
<!-- Created with Inkscape (http://www.inkscape.org/) -->
<svg width="115.9mm" height="32.885mm" version="1.1" viewBox="0 0 115.9 32.885" xmlns="http://www.w3.org/2000/svg" xmlns:cc="http://creativecommons.org/ns#" xmlns:dc="http://purl.org/dc/elements/1.1/" xmlns:rdf="http://www.w3.org/1999/02/22-rdf-syntax-ns#">
 <metadata>
  <rdf:RDF>
   <cc:Work rdf:about="">
    <dc:format>image/svg+xml</dc:format>
    <dc:type rdf:resource="http://purl.org/dc/dcmitype/StillImage"/>
    <dc:title/>
   </cc:Work>
  </rdf:RDF>
 </metadata>
 <g transform="translate(-73.588 -109.71)">
  <path d="m188.85 117.67-0.0792 0.0659h-0.23724l-0.31621-0.0659-0.15806-0.0659v-0.59188l0.0792-0.13149 0.15806-0.19737 0.15806-0.19736 0.0792-0.3946 0.0792-0.0659 0.15806-0.0659 0.15806 0.0659 0.0792 0.0659v0.1315l0.15806 0.39459v0.19737l-0.0792 0.19736-0.15806 0.19736v0.26306zm-0.94866-3.946-0.31621 0.0659-0.31621 0.13149 1.1068-0.0656 0.55339 0.13149 0.0792 0.32883 0.15806 0.26308 0.23724 0.19736 0.0792 0.13149-0.31621 0.46037-0.15806 0.3946h-0.0792v-0.19736l-0.0792-0.19736-0.0792 0.0659v0.19736l-0.39527-0.59189-0.15806-0.19736v0.26306l0.23724 0.72345-0.0792 0.32883-0.15806-0.0659-0.23724 0.0659-0.15806 0.13149-0.15806 0.26308 0.31621-0.13149 0.23724-0.13149h0.1584l-0.0792 0.19736-0.0792 0.13149-0.15806 0.13149-0.15806 0.26309v0.59188l0.15806 0.13149 0.63245 0.13149v0.19737l0.0792 0.19736v0.52614l0.23724-0.3946 0.0792 0.19736 0.15806 0.32883 0.0792 0.19736-0.0792 0.13149v0.1318l0.0792 0.13149-0.15806 0.26308-0.39527 1.3153v0.26308l-0.15806 0.19736h-0.15806l-0.31621-0.13149-0.39527-0.26306-0.15806-0.13149h-0.31622l0.31622 0.13149 0.1584 0.26298 0.0792 0.19736v0.26299l0.15807 0.13149 0.0792-0.0659 0.0792 0.13149-0.23724 0.52614-0.15806 0.59188v0.1315l-0.31627 0.32882-0.23724 0.46037-0.0792 0.3946-0.0792 0.59189v0.3946l0.0792 0.13149v0.0659l-0.23724 0.19736-0.0792 0.26306-1.2649 2.8937-0.71148 1.3153v0.1315l-0.23724 0.13149-0.0789 0.26305v0.59191l-0.15806 0.32883-0.5534 0.65766-0.15806 0.32885-0.0792 0.65766-0.15806 0.59188-0.31621-0.13149h-0.63239l-1.7392-0.26308h-1.5811l-0.47433-0.19736-0.63245-0.13149-0.15806-0.0659-0.0792-0.1315-0.0792-0.26308h-0.31621l-0.39527 0.0659-1.7392 0.3946-0.31621 0.13149-1.2649 0.59189-0.15806 0.0659-0.23724 0.0659-0.31624-0.0659-0.47433-0.19736-0.31622-0.0659-0.15806-0.0659-0.0792-0.1315v-0.13149l-0.0789-0.13149h-0.23724l-0.31621 0.0659-0.8696 0.0659-0.47433 0.0656-0.8696 0.32886-0.23724 0.0656-0.15806-0.0656-0.23725-0.19737-0.31624 0.0659-0.94866 0.59189-0.39527 0.32885-0.39527 0.13149-0.15806 0.0659v0.1315l0.15806 0.19736v0.13149l-0.0792 0.0659-0.0792 0.13149-2.0554 1.0522-0.15806 0.1315-0.0792 0.26305-0.15806 0.26309-0.0792 0.19736-1.423 0.85494-1.6601 0.13149-0.23724 0.0659-0.31625 0.13149-0.63242 0.32885-0.55339 0.26306-0.39527 0.19736-0.15806 0.1315-0.15806 0.13149-0.23724 0.0659-0.23724-0.0659-0.47433-0.13149-0.15806-0.0659h-0.23724l-3.1621-0.19737h-0.3953l-0.39527 0.0659-0.47433 0.32883-0.63244 0.92074-0.23715-0.0659-0.15812-0.13149-0.63244-0.52614-0.47433-0.19736-0.47434-0.13149-1.1068-0.1315-0.15812-0.0659-1.0277-0.39459-3.7156-3.0252-0.79055-0.32883-0.15812-0.0659-0.47433-0.13149-0.31624-0.26298-0.15809-0.32878-0.31622-0.32883h-0.7115l-0.4743 0.1318-0.7115 0.46037-0.23718 0.0659h-0.31622l-0.47433-0.1318-0.1582-0.26298v-0.19736l-0.0791-0.1315v-0.13149l-0.31622-0.32883-0.15812-0.26308-0.0791-0.13149-0.31622-0.26308-0.23715-0.0659-0.15813 0.0659-0.55338 0.32883-0.15812 0.13149v0.26306l-0.0791 0.39459v0.59209l-0.15812 0.19736-0.15812 0.26306-0.55339 0.32882-0.63244 0.3946-0.63244 0.52614-0.55339 0.72343-0.55338 0.26308-1.6602 0.3946-0.15812 0.0659-0.23715 0.19736-0.31622 0.32883-0.39528 0.59189-0.63244 0.52613-0.79055 0.46037-0.23716-0.46037-0.63244-1.5126v-0.32883l-0.0791-0.19736-0.31622-0.32885-0.15812-0.13149v-0.32886l0.0791-0.19736 0.0791-0.13149-0.15812-0.19736 0.0791-0.13149 0.15812-0.13149 0.15813-0.13149 0.0791-0.19737 0.0791-0.19736-0.0791-0.13149-0.31622-0.13149-0.0791-0.19736-0.15812-0.0659-0.31622 0.13149-0.39528 0.26308-0.39528 0.19736-0.47433 0.1315-0.39527-0.1315-0.31623-0.19736-0.31622-0.0659-0.23715-0.13149-0.39527-0.59191-0.15812-0.19736 0.71149-0.85497 0.15812-0.3946-0.39527-0.39459-0.7115-0.26306-0.63244 0.13149-0.47433 0.46037-0.23715 0.59188v0.7235l-0.0791 0.32883-0.31623 0.13149h-0.31624l-0.23715-0.19736-0.63244-1.3811-0.0791-0.26306-0.15812-0.19736-0.39528-0.13149-0.63244-0.26306-0.23715-0.13149-0.15812-0.19736-0.23718-0.13149-0.47433-0.0659-0.39528-0.13149h-0.31624l-0.55336 0.19736-0.79055 0.0659h-0.47433l-0.15812-0.13149-0.15812-0.26306-0.31622-0.26306-0.39528-0.13149-1.502-0.3946-0.55339-0.0659-0.15812-0.0659v-0.13149l-0.31624-0.1318-0.47433-0.0659-0.23715 0.0659-0.15812-0.0659-0.0791-0.19736-0.15812-0.19736-0.0791-0.13149-0.23716-0.19736-0.39527-0.7892-0.23715-0.19736-0.63245-0.19736-0.71149-0.32883h-0.31622l-0.39528 0.13149-3.5575 1.5784-0.23718 0.0656h-0.7115l-0.39528 0.0659-0.15812 0.1315v0.26305l0.23715 0.98651-0.0791 0.3946-0.15809 0.19736-0.31622 0.0659h-0.39527l-0.39528 0.0659-0.79055 0.19736-1.1068 0.0659-0.39528 0.13149-0.23715 0.19737v0.26308l0.07906 0.32883 0.07906 0.26305 0.15812 0.1315 0.07906 0.13149-0.15812 0.3946-0.07906 0.39459-0.15812 0.19737-1.0277 0.85494-0.23715 0.19736-0.79055 0.0659-0.7115 0.19736-0.7115 0.46037-0.39528 0.13149h-0.31622l-0.07906-0.0659h-0.31579l-0.07906-0.0656-0.15812-0.19736-0.15812-0.0659-0.23715-0.13149-0.31622-0.0659-0.7115 0.13149-0.39528 0.46037-0.79055 2.828-0.15812 0.32883v0.52614l-0.31624 0.26298-0.15812 0.0659h-0.23715l-0.15812-0.0659-0.39528-0.13149h-0.15812l-0.31622 0.0659-0.47433 0.46034-0.31622 0.19736-0.79055 0.0659-0.23715 0.0659-0.23715 0.59191-0.23715 0.13149-1.1858 0.32883h-0.3953l-0.31622-0.13149-0.23715-0.0659-0.15812-0.0659-0.39528-0.26306-0.23715-0.0659h-0.07906l-0.47433 0.0659h-0.07906l0.23715-0.46037 0.15812-0.13149 0.23715-0.19736 0.23715-0.26306 0.07906-0.19736 0.15812-0.19736 0.07906-0.13149v-0.0659l-0.07906-0.32883 0.07906-0.32883-0.07906-0.19736-0.15812-0.26298v-0.7234l-0.15812-0.13149-0.23715-0.0659h-0.39528l-0.23715-0.0656-1.1068-0.52613-0.15812-0.0659h-0.15812l-0.23715-0.1315v-0.0659l-0.07906-0.26305 0.07906-0.52612-0.07906-0.19736-0.07906-0.0659-0.39528-0.3946-0.15812-0.39472v-0.13149l0.07906-0.46037v-0.19736l-0.07906-0.32881v-0.19736l0.07906-0.65768 0.07906-0.26306v-0.13149l-0.07906-0.13149-0.15812-0.13149-0.23715-0.19736-0.15812-0.0659-0.07906-0.0659-0.07906 0.0659-0.15812 0.13149h-0.15812l-0.15812-0.0659-0.23715-0.0659-0.15812-0.19736-0.07906-0.13149v-0.26306l-0.07906-0.13149-0.15812-0.0656h-0.31624l-0.47433 0.13149-0.47433 0.0659h-0.23718l-0.07906-0.0659-0.15812-0.0659-0.07906-0.0656v-0.19736l0.07906-0.32883-0.07906-0.19736-0.07906-0.1315h-0.07906l-0.23715-0.0659-0.31622-0.0659h-0.31622l-1.0277 0.0659-0.39527 0.1315-0.23715 0.13149-0.15812 0.0659h-0.31622l-0.31622 0.0659-0.31622-0.0659h-0.15812l-0.31622-0.13149-0.47433-0.19737 1.5811-0.59191 1.2649-0.59188 0.15812-0.13149 0.15812-0.19736 0.07906-0.19736 0.15812-0.26306 0.31622-0.46037 0.23715-0.13149 0.39527-0.0656 0.39528-0.0659 0.23715-0.0659 0.07906-0.0659 0.15812-0.1315 0.07906-0.13149 0.07906-0.26308v-0.0659l0.15812-0.13149 0.23715-0.26306 0.15812-0.19736 0.07906-0.19736 0.07906-0.0659 0.15812-0.0659 0.31622-0.0659h0.31622l0.7115 0.13149 0.31622 0.13149 0.07906-0.0656 0.15812-0.0659 0.15812-0.19736 0.07906-0.13149v-0.32886l0.15812-0.39459v-0.0659l0.07906-0.0659h0.15812l0.15812 0.0659 0.31622 0.13149 0.15812 0.0659h0.15812l0.07906-0.0659 0.07906-0.19736 0.15812-0.32883 0.15812-0.13149 0.47433-0.26306 0.39528-0.65768 0.07906-0.13149 1.1068-0.52614 0.07906-0.0659 0.31622-0.32883 0.31622-0.26306 0.39528-0.32885 0.15812-0.0656 0.23715-0.0659 0.15812-0.13149 0.07906-0.13149 0.15812-0.19737 0.55339-1.0522 0.15812-0.52614 0.07906-1.3153-0.07906-0.85496-0.15812-0.26306-0.07906-0.0659-0.39528-0.26306-0.31622-0.13149-1.0277-0.3946-0.07906-0.0659-0.15812-0.13149v-0.13149l0.07906-0.19736 0.23715-0.32886 0.15812-0.26305 0.15812-0.19736 0.07906-0.19737v-0.52609l-0.07906-0.32882-0.39527-0.3946-0.7115-1.118v-0.0659l-0.07906-0.32883v-0.0659l0.07906-0.72342 0.07906-0.19736 0.15812-0.0659 0.39527-0.19737h0.07906l1.9764-0.13149h4.9014l1.502 0.3946h0.39528l1.5811-0.13149 0.31622-0.13149 0.7115-0.26306 0.94866-0.32883 0.39527-0.0659 1.423-0.13149 3.3994 0.3946 0.39527 0.19736 0.94867 0.72343 0.47433 0.32883 0.31622 0.26305 0.23715 0.0659 0.63244 0.1315 0.15812 0.0659 0.23718 0.0659 0.7115 0.46036 0.63244 0.1315 0.23715 0.0659 0.39527 0.0659 0.0791 0.0656 0.0791 0.0659 0.31624 0.39472 0.15812 0.46037 0.0791 0.13149 0.79055 0.72343 0.31622 0.13149 1.502 0.52611 0.55339 0.26309 0.15812 0.0656 0.23718 0.19736 0.0791 0.13149 0.39527 1.118v0.13149l0.15812 0.13149h0.15812l0.23718-0.0659 0.47433-0.26306 0.23719-0.13149h0.31625l0.15812 0.32885 0.0791 0.0659h0.1582l0.23718-0.26306 0.23718-0.26305 0.15812-0.26309 0.31622-0.46036 0.15812-0.19737 0.39528-0.32882 0.23718-0.26309 0.15812-0.13149h0.15812l0.0791 0.0659 0.0791 0.13149 0.15812-0.0659 0.0791-0.0656v-0.32883l0.0791-0.13149 0.15812-0.13149 0.0791-0.0659 0.15812-0.0659 0.39528-0.0659 0.23718 0.0659h0.31624l0.23685-0.32885 0.15812-0.0656 0.55339-0.19736 0.23715 0.0659h0.39534l0.0791 0.0659 0.0791 0.13149v0.26308l0.0791 0.19736v0.13149l0.15812 0.13149 0.23718 0.0659 0.15812 0.0659 0.31622-0.0659 0.15812 0.0659v0.0659l0.0791 0.1315-0.0791 0.19736v0.32882l0.31624 0.1318h0.31623l0.23715 0.0659 0.0791 0.1315 0.15812 0.0656 0.31622-0.0656 0.39527-0.0659 0.23718-0.0659 0.15812-0.1315 0.23716-0.19736h0.31628l0.0791 0.0659 0.0791 0.13149 0.0791 0.0659h0.0791l0.15812-0.0659 0.15812-0.19736 0.23718-0.26308 0.47433-0.26306 0.23718 0.0659 0.15812 0.0659 0.0791 0.1315 0.23715 0.32885 0.15812 0.32883 0.15812 0.32882v0.26299l-0.0793 0.26308v0.19736l0.0791 0.0659 0.31622 0.0659 0.23715 0.0659 0.15812 0.0659h0.23715l0.15813-0.13149v-0.32896l0.15812-0.13149 0.0791 0.0659 0.31624 0.1318h0.15812l0.23715-0.0659 0.15812-0.0659 0.0791-0.13149 0.15812-0.13149 0.0791-0.26306 0.0791-0.13149h0.23722l0.0791 0.13149 0.0791 0.32883 0.15812 0.0659 0.0791 0.13149 0.47433 0.13149 0.23715-0.0659v-0.1318l-0.0791-0.19736-0.0791-0.13149 0.0791-0.13149 0.15812-0.19736 0.0791-0.0656 0.23715-0.13149h0.23709l0.31622 0.0659 0.7115 0.26306h0.15812l0.15809-0.0659 0.39528-0.26306 0.15812-0.13149 0.23715-0.26306 0.23718-0.46037 0.0791-0.13149 0.23715-0.13149 0.15812-0.13149 0.15812-0.0659 1.3439-0.3946 0.4743-0.26298 0.47433-0.59191 0.47433-0.3946 0.0791-0.0656 1.8973-0.65768 0.79056-0.3946 0.15812-0.0659 0.15812-0.19736 0.15812-0.26306 0.0791-0.0659 0.23715-0.19736 0.15812-0.13149 0.15812-0.19736 0.0791-0.0659v-0.26306l0.0791-0.13149 0.0791-0.0656 0.7115-0.26309h0.15812l0.0791 0.19737 0.0791 0.0659h0.15812l0.31614-0.0659 0.15812-0.1315 0.15812-0.0659 0.0791-0.13149 0.0791-0.26308 0.0791-0.19736 0.0791-0.0659 0.15809-0.0659 1.1858-0.26306 0.31622-0.13149h0.15812l0.23718 0.0659 0.23715 0.13149 1.3439 0.92071 0.79055 0.26309 0.55339 0.32882 0.15812 0.0659h0.15812l0.23715-0.0659h0.23715l0.15812 0.1315 0.0791 0.0659v0.59191l0.0791 0.13149 0.31623 0.32885v0.26326l-0.0791 0.13149-0.15812 0.0659-0.0791 0.0659-1.0277 0.32883-0.39527 0.13149-0.39528 0.13149h-0.0791l-0.55338 0.0659h-0.0791l-0.31622 0.1315-0.31622 0.0659-0.1582 0.26298-0.079 0.13149-0.15813 0.46037v0.32885l0.39528 0.72343 0.0791 0.32883 0.31622 0.39459v0.1315l0.0791 0.19736-0.1582 0.26298-0.0791 0.0659-0.23715 0.13149-0.47433 0.19736-0.0791 0.0659-0.15812 0.19736-0.15812 0.3946-0.079 0.0659-0.7115 0.92074v0.0659l-0.23715 0.19736-0.71149 0.3946-0.15812 0.26306v0.13149l0.15812 0.13149 0.0791 0.0659h0.15812l0.15812-0.0659 0.39527-0.19736h0.63245l0.15812-0.0659 0.23715-0.19736 0.0791-0.0659 0.31622-0.0659h0.23719l0.15812 0.0659 0.23715 0.0659 0.47433 0.13149 0.0791 0.0656 0.0791 0.13149 0.0791 0.19736v0.1315l-0.0791 0.0659-0.1582 0.26298v0.32885l0.15812 0.3946 0.0791 0.13149v0.3946l0.15812 0.65768 0.0791 0.13149 0.15812 0.13149 0.63244 0.52614 0.0791 0.0659 0.23715 0.13149 0.39527 0.1315 0.23715 0.0659 0.39528 0.32882 0.71144 0.26306h0.23715l0.23718-0.13149 0.94865-0.52611 0.31624-0.1315h0.23724l0.31621-0.0659 0.8696-0.0659h0.15806l0.86957-0.7234 0.15807-0.19736 0.15806-0.19736 0.47448-0.26298h0.23724l0.15806-0.0659 0.0792-0.13149 0.31621-0.19737 0.1584-0.26298-0.0792-0.19736v-0.26306l-0.23724-0.19736-0.15806-0.26306-0.0792-0.13149v-0.13149l0.0792-0.0659 0.47433-0.52614 0.23724-0.13149h0.63265v-0.13149l-0.0792-0.19736 0.0792-0.0659 0.15806-0.0656 0.3953-0.0659 0.8696-0.0659h0.7114l0.15806-0.0659 0.39527-0.26306 0.15806-0.13149 0.0792-0.1315v-0.19736l-0.0792-0.13149-0.15806-0.26306v-0.13149l0.15806-0.0659 0.23724-0.0659 1.1858-0.0659h0.39527l0.39527 0.13149 0.31621 0.0659h0.15806l0.15807-0.13149 0.23724-0.13149 0.47433-0.3946 0.15806 0.13149v0.32886l0.15806 0.13149h0.63256l0.15806-0.0659 0.15806-0.13149 0.39527-0.3946 0.15806-0.0659 0.0792-0.0659h0.23724l0.0792 0.0659 0.15806 0.0659 0.0792 0.19736-0.0792 0.26308 0.0792 0.19736 0.15806 0.0659h0.23724l0.94867-0.19736 0.39527-0.0659 0.47448 0.1318 0.0792 0.0659 0.23724 0.19736h0.15806v-0.32885l0.0789-0.13149 0.0789-0.0659h0.31624l0.31621 0.0659h0.15806l0.0792-0.0659 0.0792-0.13149-0.1584-0.26298-0.23724-0.0659-0.15806-0.1315-0.15806-0.0656v-0.26326l0.0792-0.13149 0.15806-0.0659h0.23726l0.0792 0.0659-0.0792 0.26306 0.15806 0.0659h0.15806l0.47433-0.13149h0.15806l0.39528-0.0659 1.5811-0.52612h0.23726l0.23724 0.13149 0.23724-0.0656 0.23724-0.13149 0.47433-0.26308 0.31621-0.19736 0.94867-0.26306 0.23724-0.32883 0.39527-1.3811 0.15806-0.78919 0.0792-0.26306 0.15806-0.13149 0.23724-0.0659h1.0277l0.15806 0.0659 0.47448 0.1318 0.0792-0.0659 0.23724-0.0659 0.15806-0.13149 0.31621-0.32883 0.5534-0.3946 0.15806-0.0659 0.31624-0.13149 0.0792-0.0659h0.86975l1.423 0.32883 0.23724-0.0659 0.39527-0.0659h0.15806l0.39528 0.0659 0.39527 0.13149 0.3953 0.19736 0.71148 0.65768 0.15806 0.26306 0.15806 0.32883 0.0792 0.0659 0.94866 0.19736z" stroke-width=".72105" name="Pernambuco"/>
 </g>
</svg>
